<svg width="375" height="38" viewBox="0 0 375 38" fill="none" xmlns="http://www.w3.org/2000/svg">
<rect x="352.104" y="12.1061" width="19.4834" height="2.83425" fill="#09E026"/>
<rect x="372.115" y="34.9762" width="19.4834" height="2.83425" transform="rotate(-90 372.115 34.9762)" fill="#09E026"/>
<rect x="355.53" y="29.8077" width="19.8376" height="2.83395" transform="rotate(-45 355.53 29.8077)" fill="#09E026"/>
<path d="M13.2027 31.7774C7.45255 31.7774 2.98859 29.2806 0 22.1307L3.82085 20.0878C4.84227 26.4433 8.54963 31.0586 13.5432 31.0586C16.8723 31.0586 19.1799 29.2806 19.1799 25.8759C19.1799 22.7738 15.9265 20.6553 10.025 16.4183C4.23699 12.257 1.85368 10.3655 1.85368 6.39331C1.85368 2.19415 5.40972 0 9.98718 0C14.6781 0 18.2342 2.23198 21.2984 7.14991L17.4776 8.70095C16.5696 4.72878 14.6025 0.718774 9.72237 0.718774C6.62029 0.718774 4.76661 2.30764 4.76661 4.57746C4.76661 7.18774 6.69595 8.47397 11.7652 11.9922C18.5746 16.7588 22.0928 19.1421 22.0928 24.06C22.0928 29.2806 18.0072 31.7774 13.2027 31.7774Z" fill="#0C0C0C"/>
<path d="M35.1502 31.7774C29.5891 31.7774 25.2008 28.297 25.2008 21.9794C25.2008 15.6995 29.5891 12.1813 35.3393 12.1813C40.0681 12.1813 42.7541 14.8294 43.5863 17.5911C42.4514 19.2556 40.1059 18.8016 39.7276 16.6453C39.4628 15.1321 38.7441 12.9001 35.5663 12.9001C31.7455 12.9001 30.1188 15.9644 30.1188 21.4876C30.1188 26.2542 31.9724 30.4155 36.7391 30.4155C40.4086 30.4155 42.7541 27.7674 43.889 23.9087H44.4943C43.2459 28.07 40.7869 31.7774 35.1502 31.7774Z" fill="#0C0C0C"/>
<path d="M53.252 31.7774C50.112 31.7774 46.8586 30.3777 46.8586 26.746C46.8586 22.282 51.7009 21.0714 55.4839 20.4283C58.7373 19.8609 60.6288 19.1799 60.6288 16.7966C60.6288 14.262 59.4939 12.9001 57.2998 12.9001C53.8194 12.9001 52.798 15.1699 51.7387 16.4561C50.3768 18.2342 47.8801 17.8559 47.4639 15.5482C49.9985 13.808 53.7816 12.1813 57.8672 12.1813C62.1042 12.1813 65.0928 13.6567 65.1306 17.9315V23.3791C65.1306 26.1029 65.1306 27.9565 65.6981 31.0208H60.9693C60.7423 29.2428 60.6667 28.1079 60.6667 26.746C59.7209 29.5454 57.4133 31.7774 53.252 31.7774ZM55.3704 30.2263C58.586 30.2263 60.6288 27.3134 60.6288 23.4547V19.1043C59.8722 20.1635 58.359 20.504 56.354 20.9579C53.2898 21.7524 51.7766 23.3412 51.7766 26.065C51.7766 28.8645 53.2519 30.2263 55.3704 30.2263Z" fill="#0C0C0C"/>
<path d="M74.6562 31.0208H69.4356C69.8139 27.7674 69.8139 25.7246 69.8139 23.2278V8.54963C69.8139 6.05284 69.8139 4.01 69.4356 0.756606H74.6562C74.3157 4.01 74.3157 6.05284 74.3157 8.54963V23.2278C74.3157 25.7246 74.3157 27.7674 74.6562 31.0208Z" fill="#0C0C0C"/>
<path d="M88.9217 31.7774C83.0202 31.7774 78.1779 28.2213 78.1779 21.9794C78.1779 15.7752 83.1337 12.1813 88.5434 12.1813C94.2558 12.1813 97.547 15.813 97.5848 19.8609H83.2472C83.1337 20.4283 83.0959 21.0336 83.0959 21.6389C83.0959 26.4433 85.517 30.5668 90.3214 30.5668C93.8018 30.5668 96.5634 28.3727 97.8875 24.0979H98.5306C97.1687 28.7888 94.1801 31.7774 88.9217 31.7774ZM83.285 19.1421H92.8182C92.8182 15.5104 91.4942 12.9001 88.4677 12.9001C85.744 12.9001 83.8525 15.0186 83.285 19.1421Z" fill="#0C0C0C"/>
<path d="M127.818 31.0208H121.652L114.388 5.06925C113.896 3.17774 113.518 2.23198 112.724 0.756606H119.079C119.155 2.57246 119.42 3.32906 119.874 5.06925L126.797 29.6967L133.719 4.76661C134.098 3.32906 134.438 2.45896 134.552 0.756606H135.876C135.006 2.53463 134.817 3.32906 134.438 4.72878L127.78 28.5996C127.553 29.5454 127.515 30.0372 127.818 31.0208Z" fill="#0C0C0C"/>
<path d="M144.854 31.7774C138.953 31.7774 134.111 28.2213 134.111 21.9794C134.111 15.7752 139.066 12.1813 144.476 12.1813C150.188 12.1813 153.48 15.813 153.517 19.8609H139.18C139.066 20.4283 139.028 21.0336 139.028 21.6389C139.028 26.4433 141.45 30.5668 146.254 30.5668C149.734 30.5668 152.496 28.3727 153.82 24.0979H154.463C153.101 28.7888 150.113 31.7774 144.854 31.7774ZM139.218 19.1421H148.751C148.751 15.5104 147.427 12.9001 144.4 12.9001C141.677 12.9001 139.785 15.0186 139.218 19.1421Z" fill="#0C0C0C"/>
<path d="M162.877 31.0208H157.657C158.035 27.7674 158.035 25.7246 158.035 23.2278V8.54963C158.035 6.05284 158.035 4.01 157.657 0.756606H162.877C162.537 4.01 162.537 6.05284 162.537 8.54963V23.2278C162.537 25.7246 162.537 27.7674 162.877 31.0208Z" fill="#0C0C0C"/>
<path d="M177.71 31.7774C171.166 31.7774 166.399 28.07 166.399 21.9794C166.399 15.8887 171.166 12.1813 177.71 12.1813C184.217 12.1813 189.022 15.8887 189.022 21.9794C189.022 28.07 184.217 31.7774 177.71 31.7774ZM177.71 31.0586C181.91 31.0586 184.066 27.7296 184.066 21.9794C184.066 16.267 181.91 12.9001 177.71 12.9001C173.473 12.9001 171.317 16.267 171.317 21.9794C171.317 27.7296 173.473 31.0586 177.71 31.0586Z" fill="#0C0C0C"/>
<path d="M202.283 31.7774C196.722 31.7774 192.334 28.297 192.334 21.9794C192.334 15.6995 196.722 12.1813 202.472 12.1813C207.201 12.1813 209.887 14.8294 210.719 17.5911C209.584 19.2556 207.239 18.8016 206.86 16.6453C206.596 15.1321 205.877 12.9001 202.699 12.9001C198.878 12.9001 197.252 15.9644 197.252 21.4876C197.252 26.2542 199.105 30.4155 203.872 30.4155C207.541 30.4155 209.887 27.7674 211.022 23.9087H211.627C210.379 28.07 207.92 31.7774 202.283 31.7774Z" fill="#0C0C0C"/>
<path d="M220.979 5.82586L217.802 8.66312L214.624 5.82586L217.802 2.98859L220.979 5.82586ZM220.412 31.0208H215.191C215.57 27.9565 215.57 26.1029 215.57 23.6061V20.3905C215.57 17.8937 215.57 16.0022 215.191 12.9379H220.412C220.071 16.0022 220.071 17.8937 220.071 20.3905V23.6061C220.071 26.1029 220.071 27.9565 220.412 31.0208Z" fill="#0C0C0C"/>
<path d="M232.456 31.9665C228.975 31.9665 227.462 30.0372 227.462 25.5354V13.6567H223.377V12.9379H223.906C229.051 12.9379 228.862 9.19275 228.862 4.99359H232.721C232.721 8.20916 232.115 11.576 228.484 12.9379H237.412V13.6567H231.964V26.1785C231.964 29.6589 232.645 30.756 234.045 30.756C235.747 30.756 237.033 28.7888 237.828 23.3034H238.471C237.525 30.0372 235.634 31.9665 232.456 31.9665Z" fill="#0C0C0C"/>
<path d="M245.248 37.7546C243.432 37.7546 241.39 37.1493 239.99 35.9009C239.574 33.7446 242.335 32.8366 243.319 34.9173C244 36.317 244.643 37.0358 245.967 37.0358C247.896 37.0358 249.901 35.1821 251.377 31.0208H246.951L241.125 15.8887C240.709 14.7916 240.406 14.1485 239.649 12.9379H245.286C245.475 14.1863 245.702 14.7538 246.118 15.8509L251.642 30.1885L256.673 15.8509C257.127 14.5646 257.203 14.035 257.43 12.9379H258.64C258.073 14.035 257.884 14.5646 257.43 15.8887L252.133 31.0208C250.507 35.6739 248.653 37.7546 245.248 37.7546Z" fill="#0C0C0C"/>
<path d="M291.79 31.0208H273.594C273.896 27.9944 274.01 26.3677 274.01 23.2278V8.54963C274.01 5.40972 273.934 3.78302 273.669 0.756606H279.533C279.268 3.78302 279.193 5.40972 279.193 8.54963V30.302H282.068C285.964 30.302 288.348 30.075 293.039 28.4862L291.79 31.0208Z" fill="#0C0C0C"/>
<path d="M302.178 31.7774C299.038 31.7774 295.784 30.3777 295.784 26.746C295.784 22.282 300.627 21.0714 304.41 20.4283C307.663 19.8609 309.555 19.1799 309.555 16.7966C309.555 14.262 308.42 12.9001 306.226 12.9001C302.745 12.9001 301.724 15.1699 300.665 16.4561C299.303 18.2342 296.806 17.8559 296.39 15.5482C298.924 13.808 302.707 12.1813 306.793 12.1813C311.03 12.1813 314.019 13.6567 314.056 17.9315V23.3791C314.056 26.1029 314.056 27.9565 314.624 31.0208H309.895C309.668 29.2428 309.592 28.1079 309.592 26.746C308.647 29.5454 306.339 31.7774 302.178 31.7774ZM304.296 30.2263C307.512 30.2263 309.555 27.3134 309.555 23.4547V19.1043C308.798 20.1635 307.285 20.504 305.28 20.9579C302.216 21.7524 300.702 23.3412 300.702 26.065C300.702 28.8645 302.178 30.2263 304.296 30.2263Z" fill="#0C0C0C"/>
<path d="M330.656 31.7774C326.608 31.7774 324.187 29.4697 323.241 26.3298C323.241 27.843 323.355 29.0158 323.62 31.0208H318.74V8.39831C318.74 5.90152 318.74 4.42614 318.361 0.756606H323.582C323.241 4.42614 323.241 5.90152 323.241 8.39831V16.0778C325.133 13.7702 327.705 12.1813 330.959 12.1813C335.196 12.1813 339.773 15.3212 339.773 21.9794C339.773 28.6375 335.385 31.7774 330.656 31.7774ZM329.143 30.5668C333.229 30.5668 334.818 26.7081 334.818 21.9794C334.818 16.3805 332.813 13.2406 329.559 13.2406C327.138 13.2406 324.793 15.0186 323.241 17.0614V22.5468C323.241 27.4647 325.549 30.5668 329.143 30.5668Z" fill="#0C0C0C"/>
</svg>
