<svg width="1353" height="137" viewBox="0 0 1353 137" fill="none" xmlns="http://www.w3.org/2000/svg">
<rect x="1269.86" y="43.659" width="70.2665" height="10.2216" fill="#09E026"/>
<rect x="1342.03" y="126.139" width="70.2665" height="10.2216" transform="rotate(-90 1342.03 126.139)" fill="#09E026"/>
<rect x="1282.21" y="107.5" width="71.544" height="10.2206" transform="rotate(-45 1282.21 107.5)" fill="#09E026"/>
<path d="M47.6154 114.604C26.8775 114.604 10.7783 105.6 0 79.8138L13.7798 72.4464C17.4635 95.3673 30.8341 112.012 48.8433 112.012C60.8495 112.012 69.172 105.6 69.172 93.3208C69.172 82.1332 57.4387 74.4929 36.155 59.2123C15.2806 44.2046 6.68526 37.3829 6.68526 23.0573C6.68526 7.91317 19.51 0 36.0186 0C52.9364 0 65.7611 8.0496 76.8123 25.786L63.0325 31.3798C59.758 17.0542 52.6635 2.59224 35.0635 2.59224C23.8759 2.59224 17.1907 8.32247 17.1907 16.5085C17.1907 25.9224 24.1488 30.5612 42.4309 43.2495C66.989 60.4402 79.6774 69.0356 79.6774 86.772C79.6774 105.6 64.9425 114.604 47.6154 114.604Z" fill="#0C0C0C"/>
<path d="M126.768 114.604C106.713 114.604 90.8863 102.053 90.8863 79.2681C90.8863 56.6201 106.713 43.9317 127.451 43.9317C144.505 43.9317 154.192 53.4821 157.193 63.4418C153.1 69.4449 144.641 67.8076 143.277 60.0309C142.322 54.5736 139.73 46.524 128.269 46.524C114.489 46.524 108.623 57.5751 108.623 77.4945C108.623 94.6851 115.308 109.693 132.499 109.693C145.733 109.693 154.192 100.142 158.285 86.2262H160.468C155.965 101.234 147.097 114.604 126.768 114.604Z" fill="#0C0C0C"/>
<path d="M192.052 114.604C180.728 114.604 168.995 109.556 168.995 96.4588C168.995 80.3596 186.458 75.9937 200.102 73.6743C211.835 71.6278 218.657 69.172 218.657 60.5767C218.657 51.4356 214.564 46.524 206.65 46.524C194.099 46.524 190.415 54.71 186.595 59.3488C181.683 65.7611 172.678 64.3968 171.178 56.0743C180.319 49.7984 193.962 43.9317 208.697 43.9317C223.978 43.9317 234.756 49.2526 234.892 64.6697V84.3162C234.892 94.1394 234.892 100.825 236.939 111.876H219.885C219.066 105.463 218.793 101.37 218.793 96.4588C215.382 106.555 207.06 114.604 192.052 114.604ZM199.692 109.011C211.289 109.011 218.657 98.5053 218.657 84.589V68.8991C215.928 72.7193 210.471 73.9472 203.24 75.5844C192.188 78.4495 186.731 84.1797 186.731 94.003C186.731 104.099 192.052 109.011 199.692 109.011Z" fill="#0C0C0C"/>
<path d="M269.246 111.876H250.418C251.782 100.142 251.782 92.7751 251.782 83.7704V30.8341C251.782 21.8294 251.782 14.462 250.418 2.72868H269.246C268.018 14.462 268.018 21.8294 268.018 30.8341V83.7704C268.018 92.7751 268.018 100.142 269.246 111.876Z" fill="#0C0C0C"/>
<path d="M320.694 114.604C299.411 114.604 281.947 101.78 281.947 79.2681C281.947 56.8929 299.82 43.9317 319.33 43.9317C339.931 43.9317 351.801 57.0294 351.938 71.6278H300.229C299.82 73.6743 299.683 75.8573 299.683 78.0402C299.683 95.3673 308.415 110.239 325.742 110.239C338.294 110.239 348.254 102.325 353.029 86.9084H355.348C350.437 103.826 339.659 114.604 320.694 114.604ZM300.366 69.0356H334.747C334.747 55.9379 329.972 46.524 319.057 46.524C309.234 46.524 302.412 54.1643 300.366 69.0356Z" fill="#0C0C0C"/>
<path d="M460.973 111.876H438.734L412.539 18.2821C410.765 11.4604 409.401 8.0496 406.536 2.72868H429.457C429.729 9.27751 430.684 12.0062 432.322 18.2821L457.289 107.101L482.257 17.1907C483.621 12.0062 484.849 8.8682 485.258 2.72868H490.033C486.895 9.14108 486.213 12.0062 484.849 17.0542L460.836 103.144C460.018 106.555 459.881 108.329 460.973 111.876Z" fill="#0C0C0C"/>
<path d="M522.414 114.604C501.13 114.604 483.667 101.78 483.667 79.2681C483.667 56.8929 501.54 43.9317 521.05 43.9317C541.651 43.9317 553.521 57.0294 553.657 71.6278H501.949C501.54 73.6743 501.403 75.8573 501.403 78.0402C501.403 95.3673 510.135 110.239 527.462 110.239C540.014 110.239 549.974 102.325 554.749 86.9084H557.068C552.156 103.826 541.378 114.604 522.414 114.604ZM502.085 69.0356H536.467C536.467 55.9379 531.691 46.524 520.777 46.524C510.953 46.524 504.132 54.1643 502.085 69.0356Z" fill="#0C0C0C"/>
<path d="M587.414 111.876H568.586C569.95 100.142 569.951 92.7751 569.951 83.7704V30.8341C569.951 21.8294 569.95 14.462 568.586 2.72868H587.414C586.186 14.462 586.186 21.8294 586.186 30.8341V83.7704C586.186 92.7751 586.186 100.142 587.414 111.876Z" fill="#0C0C0C"/>
<path d="M640.909 114.604C617.306 114.604 600.115 101.234 600.115 79.2681C600.115 57.3022 617.306 43.9317 640.909 43.9317C664.375 43.9317 681.703 57.3022 681.703 79.2681C681.703 101.234 664.375 114.604 640.909 114.604ZM640.909 112.012C656.053 112.012 663.83 100.006 663.83 79.2681C663.83 58.6666 656.053 46.524 640.909 46.524C625.628 46.524 617.852 58.6666 617.852 79.2681C617.852 100.006 625.628 112.012 640.909 112.012Z" fill="#0C0C0C"/>
<path d="M729.529 114.604C709.473 114.604 693.647 102.053 693.647 79.2681C693.647 56.6201 709.473 43.9317 730.211 43.9317C747.266 43.9317 756.952 53.4821 759.954 63.4418C755.861 69.4449 747.402 67.8076 746.038 60.0309C745.083 54.5736 742.49 46.524 731.03 46.524C717.25 46.524 711.383 57.5751 711.383 77.4945C711.383 94.6851 718.069 109.693 735.259 109.693C748.493 109.693 756.952 100.142 761.045 86.2262H763.228C758.726 101.234 749.858 114.604 729.529 114.604Z" fill="#0C0C0C"/>
<path d="M796.957 21.0108L785.497 31.2434L774.036 21.0108L785.497 10.7783L796.957 21.0108ZM794.911 111.876H776.083C777.447 100.825 777.447 94.1394 777.447 85.1348V73.5379C777.447 64.5332 777.447 57.7115 776.083 46.6604H794.911C793.683 57.7115 793.683 64.5332 793.683 73.5379V85.1348C793.683 94.1394 793.683 100.825 794.911 111.876Z" fill="#0C0C0C"/>
<path d="M838.347 115.287C825.795 115.287 820.338 108.329 820.338 92.0929V49.2526H805.603V46.6604H807.513C826.068 46.6604 825.386 33.1534 825.386 18.0093H839.302C839.302 29.6062 837.119 41.7488 824.021 46.6604H856.22V49.2526H836.573V94.4123C836.573 106.964 839.029 110.921 844.077 110.921C850.217 110.921 854.855 103.826 857.72 84.0433H860.04C856.629 108.329 849.807 115.287 838.347 115.287Z" fill="#0C0C0C"/>
<path d="M884.483 136.161C877.934 136.161 870.567 133.978 865.518 129.476C864.018 121.699 873.977 118.425 877.525 125.928C879.981 130.977 882.3 133.569 887.075 133.569C894.033 133.569 901.264 126.884 906.585 111.876H890.622L869.612 57.3022C868.111 53.3457 867.019 51.0263 864.291 46.6604H884.619C885.301 51.1627 886.12 53.2092 887.621 57.1658L907.54 108.874L925.686 57.1658C927.323 52.5271 927.596 50.617 928.415 46.6604H932.78C930.734 50.617 930.052 52.5271 928.415 57.3022L909.314 111.876C903.447 128.657 896.762 136.161 884.483 136.161Z" fill="#0C0C0C"/>
<path d="M1052.33 111.876H986.71C987.802 100.961 988.211 95.0944 988.211 83.7704V30.8341C988.211 19.5101 987.938 13.6434 986.983 2.72868H1008.13C1007.18 13.6434 1006.9 19.5101 1006.9 30.8341V109.284H1017.27C1031.32 109.284 1039.92 108.465 1056.84 102.735L1052.33 111.876Z" fill="#0C0C0C"/>
<path d="M1089.8 114.604C1078.47 114.604 1066.74 109.556 1066.74 96.4588C1066.74 80.3596 1084.2 75.9937 1097.85 73.6743C1109.58 71.6278 1116.4 69.172 1116.4 60.5767C1116.4 51.4356 1112.31 46.524 1104.4 46.524C1091.84 46.524 1088.16 54.71 1084.34 59.3488C1079.43 65.7611 1070.42 64.3968 1068.92 56.0743C1078.06 49.7984 1091.71 43.9317 1106.44 43.9317C1121.72 43.9317 1132.5 49.2526 1132.64 64.6697V84.3162C1132.64 94.1394 1132.64 100.825 1134.68 111.876H1117.63C1116.81 105.463 1116.54 101.37 1116.54 96.4588C1113.13 106.555 1104.81 114.604 1089.8 114.604ZM1097.44 109.011C1109.04 109.011 1116.4 98.5053 1116.4 84.589V68.8991C1113.67 72.7193 1108.22 73.9472 1100.99 75.5844C1089.93 78.4495 1084.48 84.1797 1084.48 94.003C1084.48 104.099 1089.8 109.011 1097.44 109.011Z" fill="#0C0C0C"/>
<path d="M1192.5 114.604C1177.91 114.604 1169.17 106.282 1165.76 94.958C1165.76 100.415 1166.17 104.645 1167.13 111.876H1149.53V30.2883C1149.53 21.2837 1149.53 15.9628 1148.16 2.72868H1166.99C1165.76 15.9628 1165.76 21.2837 1165.76 30.2883V57.9844C1172.59 49.6619 1181.86 43.9317 1193.6 43.9317C1208.88 43.9317 1225.39 55.2557 1225.39 79.2681C1225.39 103.28 1209.56 114.604 1192.5 114.604ZM1187.05 110.239C1201.78 110.239 1207.51 96.3223 1207.51 79.2681C1207.51 59.0759 1200.28 47.7519 1188.55 47.7519C1179.82 47.7519 1171.36 54.1643 1165.76 61.5317V81.3146C1165.76 99.051 1174.09 110.239 1187.05 110.239Z" fill="#0C0C0C"/>
</svg>
