<svg width="706" height="223" viewBox="0 0 706 223" fill="none" xmlns="http://www.w3.org/2000/svg">
<g clip-path="url(#clip0_46_1670)">
<g clip-path="url(#clip1_46_1670)">
<rect x="470.427" width="67.7999" height="6.25846" fill="#CDC7B1"/>
<rect x="542.399" y="78.2307" width="67.7999" height="6.25846" transform="rotate(-90 542.399 78.2307)" fill="#CDC7B1"/>
<rect x="483.359" y="60.8735" width="67.7999" height="6.25846" transform="rotate(-45 483.359 60.8735)" fill="#CDC7B1"/>
<rect x="548.658" width="67.7999" height="6.25846" fill="#CDC7B1"/>
<rect x="620.63" y="78.2307" width="67.7999" height="6.25846" transform="rotate(-90 620.63 78.2307)" fill="#CDC7B1"/>
<rect x="561.59" y="60.8735" width="67.7999" height="6.25846" transform="rotate(-45 561.59 60.8735)" fill="#CDC7B1"/>
<rect x="470.427" y="78.2307" width="67.7999" height="6.25846" fill="#CDC7B1"/>
<rect x="542.399" y="156.461" width="67.7999" height="6.25846" transform="rotate(-90 542.399 156.461)" fill="#CDC7B1"/>
<rect x="483.359" y="139.104" width="67.7999" height="6.25846" transform="rotate(-45 483.359 139.104)" fill="#CDC7B1"/>
<rect x="626.889" y="78.2307" width="67.7999" height="6.25846" fill="#CDC7B1"/>
<rect x="698.861" y="156.461" width="67.7999" height="6.25846" transform="rotate(-90 698.861 156.461)" fill="#CDC7B1"/>
<rect x="639.82" y="139.104" width="67.7999" height="6.25846" transform="rotate(-45 639.82 139.104)" fill="#CDC7B1"/>
<rect x="235.735" y="78.2307" width="67.7999" height="6.25846" fill="#CDC7B1"/>
<rect x="307.707" y="156.461" width="67.7999" height="6.25846" transform="rotate(-90 307.707 156.461)" fill="#CDC7B1"/>
<rect x="248.667" y="139.104" width="67.7999" height="6.25846" transform="rotate(-45 248.667 139.104)" fill="#CDC7B1"/>
<rect x="392.196" y="78.2307" width="67.7999" height="6.25846" fill="#59562D"/>
<rect x="464.169" y="156.461" width="67.7999" height="6.25846" transform="rotate(-90 464.169 156.461)" fill="#59562D"/>
<rect x="405.129" y="139.104" width="67.7999" height="6.25846" transform="rotate(-45 405.129 139.104)" fill="#59562D"/>
<rect x="313.966" y="78.2307" width="67.7999" height="6.25846" fill="#CDC7B1"/>
<rect x="385.938" y="156.461" width="67.7999" height="6.25846" transform="rotate(-90 385.938 156.461)" fill="#CDC7B1"/>
<rect x="326.897" y="139.104" width="67.7999" height="6.25846" transform="rotate(-45 326.897 139.104)" fill="#CDC7B1"/>
<rect x="392.196" y="156.461" width="67.7999" height="6.25846" fill="#CDC7B1"/>
<rect x="464.169" y="234.692" width="67.7999" height="6.25846" transform="rotate(-90 464.169 234.692)" fill="#CDC7B1"/>
<rect x="405.129" y="217.335" width="67.7999" height="6.25846" transform="rotate(-45 405.129 217.335)" fill="#CDC7B1"/>
<rect x="626.889" width="67.7999" height="6.25846" fill="#59562D"/>
<rect x="698.861" y="78.2307" width="67.7999" height="6.25846" transform="rotate(-90 698.861 78.2307)" fill="#59562D"/>
<rect x="639.82" y="60.8735" width="67.7999" height="6.25846" transform="rotate(-45 639.82 60.8735)" fill="#59562D"/>
<rect x="79.2734" y="156.461" width="67.7999" height="6.25846" fill="#CDC7B1"/>
<rect x="151.246" y="234.692" width="67.7999" height="6.25846" transform="rotate(-90 151.246 234.692)" fill="#CDC7B1"/>
<rect x="92.2061" y="217.335" width="67.7999" height="6.25846" transform="rotate(-45 92.2061 217.335)" fill="#CDC7B1"/>
<rect x="157.504" y="156.461" width="67.7999" height="6.25846" fill="#59562D"/>
<rect x="229.477" y="234.692" width="67.7999" height="6.25846" transform="rotate(-90 229.477 234.692)" fill="#59562D"/>
<rect x="170.437" y="217.335" width="67.7999" height="6.25846" transform="rotate(-45 170.437 217.335)" fill="#59562D"/>
<rect x="470.427" y="156.461" width="67.7999" height="6.25846" fill="#59562D"/>
<rect x="542.399" y="234.692" width="67.7999" height="6.25846" transform="rotate(-90 542.399 234.692)" fill="#59562D"/>
<rect x="483.359" y="217.335" width="67.7999" height="6.25846" transform="rotate(-45 483.359 217.335)" fill="#59562D"/>
<rect x="313.966" y="156.461" width="67.7999" height="6.25846" fill="#59562D"/>
<rect x="385.938" y="234.692" width="67.7999" height="6.25846" transform="rotate(-90 385.938 234.692)" fill="#59562D"/>
<rect x="326.897" y="217.335" width="67.7999" height="6.25846" transform="rotate(-45 326.897 217.335)" fill="#59562D"/>
<rect x="235.735" y="156.461" width="67.7999" height="6.25846" fill="#CDC7B1"/>
<rect x="307.707" y="234.692" width="67.7999" height="6.25846" transform="rotate(-90 307.707 234.692)" fill="#CDC7B1"/>
<rect x="248.667" y="217.335" width="67.7999" height="6.25846" transform="rotate(-45 248.667 217.335)" fill="#CDC7B1"/>
<rect x="548.658" y="78.2307" width="67.7999" height="6.25846" fill="#09E026"/>
<rect x="620.63" y="156.461" width="67.7999" height="6.25846" transform="rotate(-90 620.63 156.461)" fill="#09E026"/>
<rect x="561.59" y="139.104" width="67.7999" height="6.25846" transform="rotate(-45 561.59 139.104)" fill="#09E026"/>
<rect x="548.658" y="156.461" width="67.7999" height="6.25846" fill="#CDC7B1"/>
<rect x="620.63" y="234.692" width="67.7999" height="6.25846" transform="rotate(-90 620.63 234.692)" fill="#CDC7B1"/>
<rect x="561.59" y="217.335" width="67.7999" height="6.25846" transform="rotate(-45 561.59 217.335)" fill="#CDC7B1"/>
<rect x="626.889" y="156.461" width="67.7999" height="6.25846" fill="#CDC7B1"/>
<rect x="698.861" y="234.692" width="67.7999" height="6.25846" transform="rotate(-90 698.861 234.692)" fill="#CDC7B1"/>
<rect x="639.82" y="217.335" width="67.7999" height="6.25846" transform="rotate(-45 639.82 217.335)" fill="#CDC7B1"/>
</g>
</g>
<defs>
<clipPath id="clip0_46_1670">
<rect width="705.12" height="222.175" fill="white"/>
</clipPath>
<clipPath id="clip1_46_1670">
<rect width="625.846" height="234.692" fill="white" transform="translate(79.2734)"/>
</clipPath>
</defs>
</svg>
